<svg xmlns="http://www.w3.org/2000/svg" xmlns:xlink="http://www.w3.org/1999/xlink" width="1080" zoomAndPan="magnify" viewBox="0 0 810 809.999993" height="1080" preserveAspectRatio="xMidYMid meet" version="1.0"><defs><clipPath id="456699f675"><path d="M 290.679688 137 L 544.179688 137 L 544.179688 673 L 290.679688 673 Z M 290.679688 137 " clip-rule="nonzero"/></clipPath></defs><g clip-path="url(#456699f675)"><path fill="#ff22aa" d="M 485.820312 225.609375 L 544.34375 225.609375 L 544.34375 137.378906 L 469.617188 137.378906 L 469.617188 137.714844 C 371.371094 141.316406 351.113281 196.347656 349.425781 254.53125 L 349.199219 254.53125 L 349.199219 315.753906 L 290.679688 315.753906 L 290.679688 404.097656 L 349.199219 404.097656 L 349.199219 672.617188 L 454.199219 672.617188 L 454.199219 404.097656 L 529.488281 404.097656 L 544.34375 315.753906 L 454.199219 315.753906 L 454.199219 260.945312 C 454.199219 241.476562 467.253906 225.609375 485.820312 225.609375 Z M 485.820312 225.609375 " fill-opacity="1" fill-rule="nonzero"/></g></svg>