<svg xmlns="http://www.w3.org/2000/svg" xmlns:xlink="http://www.w3.org/1999/xlink" width="1080" zoomAndPan="magnify" viewBox="0 0 810 809.999993" height="1080" preserveAspectRatio="xMidYMid meet" version="1.0"><defs><clipPath id="3c57ae9ca9"><path d="M 142 134.941406 L 668 134.941406 L 668 662 L 142 662 Z M 142 134.941406 " clip-rule="nonzero"/></clipPath></defs><g clip-path="url(#3c57ae9ca9)"><path fill="#ff22aa" d="M 540.574219 661.875 L 270.816406 661.875 C 199.535156 661.875 142.230469 604.570312 142.230469 533.285156 L 142.230469 263.53125 C 142.230469 192.246094 199.535156 134.941406 270.816406 134.941406 L 539.175781 134.941406 C 610.460938 134.941406 667.765625 192.246094 667.765625 263.53125 L 667.765625 531.890625 C 667.765625 603.171875 610.460938 660.476562 539.175781 660.476562 Z M 270.816406 176.871094 C 223.296875 176.871094 184.160156 216.007812 184.160156 263.53125 L 184.160156 531.890625 C 184.160156 579.410156 223.296875 618.546875 270.816406 618.546875 L 539.175781 618.546875 C 586.699219 618.546875 625.835938 579.410156 625.835938 531.890625 L 625.835938 263.53125 C 625.835938 216.007812 586.699219 176.871094 539.175781 176.871094 Z M 270.816406 176.871094 " fill-opacity="1" fill-rule="nonzero"/></g><path fill="#ff22aa" d="M 406.394531 568.230469 C 314.148438 568.230469 240.066406 494.152344 240.066406 401.902344 C 240.066406 309.652344 314.148438 235.574219 406.394531 235.574219 C 498.644531 235.574219 572.722656 309.652344 572.722656 401.902344 C 572.722656 494.152344 498.644531 568.230469 406.394531 568.230469 Z M 406.394531 276.109375 C 336.507812 276.109375 280.601562 332.015625 280.601562 401.902344 C 280.601562 471.789062 336.507812 527.695312 406.394531 527.695312 C 476.28125 527.695312 532.1875 471.789062 532.1875 401.902344 C 532.1875 332.015625 476.28125 276.109375 406.394531 276.109375 Z M 406.394531 276.109375 " fill-opacity="1" fill-rule="nonzero"/><path fill="#ff22aa" d="M 406.394531 477.378906 C 364.464844 477.378906 330.917969 443.832031 330.917969 401.902344 C 330.917969 359.972656 364.464844 326.425781 406.394531 326.425781 C 448.324219 326.425781 481.871094 359.972656 481.871094 401.902344 C 481.871094 443.832031 448.324219 477.378906 406.394531 477.378906 Z M 406.394531 368.359375 C 388.226562 368.359375 372.851562 383.730469 372.851562 401.902344 C 372.851562 420.074219 388.226562 435.449219 406.394531 435.449219 C 424.566406 435.449219 439.941406 420.074219 439.941406 401.902344 C 439.941406 383.730469 424.566406 368.359375 406.394531 368.359375 Z M 406.394531 368.359375 " fill-opacity="1" fill-rule="nonzero"/><path fill="#ff22aa" d="M 586.699219 245.359375 C 586.699219 246.273438 586.652344 247.1875 586.5625 248.101562 C 586.472656 249.011719 586.339844 249.914062 586.160156 250.8125 C 585.984375 251.710938 585.761719 252.597656 585.496094 253.472656 C 585.230469 254.351562 584.921875 255.210938 584.570312 256.058594 C 584.21875 256.902344 583.828125 257.730469 583.398438 258.539062 C 582.964844 259.34375 582.496094 260.128906 581.988281 260.890625 C 581.480469 261.652344 580.933594 262.386719 580.351562 263.09375 C 579.773438 263.800781 579.15625 264.480469 578.511719 265.125 C 577.863281 265.773438 577.1875 266.386719 576.476562 266.96875 C 575.769531 267.550781 575.035156 268.09375 574.273438 268.601562 C 573.511719 269.113281 572.730469 269.582031 571.921875 270.011719 C 571.113281 270.445312 570.289062 270.835938 569.441406 271.1875 C 568.597656 271.535156 567.734375 271.84375 566.859375 272.109375 C 565.984375 272.375 565.097656 272.597656 564.199219 272.777344 C 563.300781 272.957031 562.394531 273.089844 561.484375 273.179688 C 560.574219 273.269531 559.660156 273.3125 558.746094 273.3125 C 557.828125 273.3125 556.914062 273.269531 556.003906 273.179688 C 555.09375 273.089844 554.1875 272.957031 553.289062 272.777344 C 552.394531 272.597656 551.503906 272.375 550.628906 272.109375 C 549.753906 271.84375 548.894531 271.535156 548.046875 271.1875 C 547.199219 270.835938 546.375 270.445312 545.566406 270.011719 C 544.757812 269.582031 543.976562 269.113281 543.214844 268.601562 C 542.453125 268.09375 541.71875 267.550781 541.011719 266.96875 C 540.300781 266.386719 539.625 265.773438 538.976562 265.125 C 538.332031 264.480469 537.714844 263.800781 537.136719 263.09375 C 536.554688 262.386719 536.011719 261.652344 535.5 260.890625 C 534.992188 260.128906 534.523438 259.34375 534.089844 258.539062 C 533.660156 257.730469 533.269531 256.902344 532.917969 256.058594 C 532.566406 255.210938 532.257812 254.351562 531.992188 253.472656 C 531.726562 252.597656 531.507812 251.710938 531.328125 250.8125 C 531.148438 249.914062 531.015625 249.011719 530.925781 248.101562 C 530.835938 247.1875 530.789062 246.273438 530.789062 245.359375 C 530.789062 244.445312 530.835938 243.53125 530.925781 242.621094 C 531.015625 241.707031 531.148438 240.804688 531.328125 239.90625 C 531.507812 239.007812 531.726562 238.121094 531.992188 237.246094 C 532.257812 236.367188 532.566406 235.507812 532.917969 234.664062 C 533.269531 233.816406 533.660156 232.988281 534.089844 232.183594 C 534.523438 231.375 534.992188 230.589844 535.5 229.828125 C 536.011719 229.066406 536.554688 228.332031 537.136719 227.625 C 537.714844 226.917969 538.332031 226.242188 538.976562 225.59375 C 539.625 224.945312 540.304688 224.332031 541.011719 223.75 C 541.71875 223.171875 542.453125 222.625 543.214844 222.117188 C 543.976562 221.609375 544.757812 221.136719 545.566406 220.707031 C 546.375 220.273438 547.199219 219.882812 548.046875 219.535156 C 548.894531 219.183594 549.753906 218.875 550.628906 218.609375 C 551.503906 218.34375 552.394531 218.121094 553.289062 217.941406 C 554.1875 217.765625 555.09375 217.628906 556.003906 217.539062 C 556.914062 217.449219 557.828125 217.40625 558.746094 217.40625 C 559.660156 217.40625 560.574219 217.449219 561.484375 217.539062 C 562.394531 217.628906 563.300781 217.765625 564.199219 217.941406 C 565.097656 218.121094 565.984375 218.34375 566.859375 218.609375 C 567.734375 218.875 568.597656 219.183594 569.441406 219.535156 C 570.289062 219.882812 571.113281 220.273438 571.921875 220.707031 C 572.730469 221.136719 573.511719 221.609375 574.273438 222.117188 C 575.035156 222.625 575.769531 223.171875 576.476562 223.75 C 577.1875 224.332031 577.863281 224.945312 578.511719 225.59375 C 579.15625 226.242188 579.773438 226.917969 580.351562 227.625 C 580.933594 228.332031 581.480469 229.066406 581.988281 229.828125 C 582.496094 230.589844 582.964844 231.375 583.398438 232.183594 C 583.828125 232.988281 584.21875 233.816406 584.570312 234.664062 C 584.921875 235.507812 585.230469 236.367188 585.496094 237.246094 C 585.761719 238.121094 585.984375 239.007812 586.160156 239.90625 C 586.339844 240.804688 586.472656 241.707031 586.5625 242.621094 C 586.652344 243.53125 586.699219 244.445312 586.699219 245.359375 Z M 586.699219 245.359375 " fill-opacity="1" fill-rule="nonzero"/></svg>