<svg xmlns="http://www.w3.org/2000/svg" xmlns:xlink="http://www.w3.org/1999/xlink" width="1080" zoomAndPan="magnify" viewBox="0 0 810 809.999993" height="1080" preserveAspectRatio="xMidYMid meet" version="1.0"><path fill="#ff22aa" d="M 405 162 C 270.769531 162 162 270.769531 162 405 C 162 539.230469 270.769531 648 405 648 C 539.230469 648 648 539.230469 648 405 C 647.789062 270.769531 539.019531 162 405 162 Z M 546.800781 350.296875 C 546.800781 350.296875 551.011719 443.289062 480.320312 500.9375 C 374.492188 586.988281 260.25 517.136719 260.25 517.136719 C 260.25 517.136719 288.023438 517.558594 312.640625 511.035156 C 337.042969 504.515625 354.71875 488.523438 354.71875 488.523438 C 354.71875 488.523438 327.996094 483.054688 314.113281 472.957031 C 300.226562 462.855469 294.753906 443.5 294.753906 443.5 C 294.753906 443.5 304.011719 444.34375 309.695312 444.132812 C 315.585938 443.921875 322.527344 441.1875 322.527344 441.1875 C 322.527344 441.1875 303.382812 438.871094 285.5 418.886719 C 271.402344 403.105469 272.453125 376.808594 272.453125 376.808594 C 272.453125 376.808594 280.871094 381.855469 285.289062 382.910156 C 289.707031 384.171875 298.332031 384.171875 298.332031 384.171875 C 298.332031 384.171875 281.5 374.28125 274.136719 348.40625 C 266.773438 322.738281 280.871094 296.648438 280.871094 296.648438 C 280.871094 296.648438 305.90625 326.945312 342.933594 346.300781 C 379.964844 365.65625 414.886719 365.027344 414.886719 365.027344 C 414.886719 365.027344 409.839844 349.667969 418.675781 326.945312 C 427.511719 304.222656 447.5 287.8125 478.003906 285.5 C 508.511719 282.972656 528.078125 306.117188 528.078125 306.117188 C 528.078125 306.117188 537.546875 304.433594 548.273438 300.4375 C 559.003906 296.648438 569.734375 291.601562 569.734375 291.601562 C 569.734375 291.601562 565.949219 303.171875 558.585938 312.21875 C 551.222656 321.265625 543.015625 326.734375 543.015625 326.734375 C 543.015625 326.734375 552.695312 326.105469 562.371094 323.367188 C 572.050781 320.632812 577.308594 317.898438 577.308594 317.898438 C 566.160156 336.414062 546.800781 350.296875 546.800781 350.296875 Z M 546.800781 350.296875 " fill-opacity="1" fill-rule="nonzero"/></svg>